# xmcd
#
# Track frame offsets: 
#        150
#        15287
#        30717
#        45640
#        73915
#        90895
#        109397
#        124629
#        146795
#        164157
#        177477
#        198972
#
# Disc length: 2927 seconds
#
# Revision: 2
# Processed by: cddbd v1.5.2PL0 Copyright (c) Steve Scherf et al.
# Submitted via: ExactAudioCopy v0.99pb4
#
DISCID=a60b6d0c
DTITLE=Sonny Boy Williamson - Keep It To Ourselves
DYEAR=1963
DGENRE=
TTITLE0=The Sky Is Crying
TTITLE1=Slowly Walk Close To Me
TTITLE2=Once Upon A Time
TTITLE3=Don't Let Your Right Hand Know
TTITLE4=Movin' Out
TTITLE5=Coming Home To You Baby
TTITLE6=I Can't Understand
TTITLE7=Same Girl
TTITLE8=Gettin'  Together
TTITLE9=Why Are You Crying?
TTITLE10=Girl Friends
TTITLE11=When The Lights Went You
EXTD=
EXTT0=
EXTT1=
EXTT2=
EXTT3=
EXTT4=
EXTT5=
EXTT6=
EXTT7=
EXTT8=
EXTT9=
EXTT10=
EXTT11=
PLAYORDER=
